<?xml version="1.0" encoding="UTF-8" standalone="no"?>
<!-- Created with Inkscape (http://www.inkscape.org/) -->

<svg
   width="126.20603mm"
   height="91.728691mm"
   viewBox="0 0 126.20603 91.728691"
   version="1.1"
   id="svg8"
   inkscape:version="1.1.2 (0a00cf5339, 2022-02-04)"
   sodipodi:docname="perimeter.svg"
   xmlns:inkscape="http://www.inkscape.org/namespaces/inkscape"
   xmlns:sodipodi="http://sodipodi.sourceforge.net/DTD/sodipodi-0.dtd"
   xmlns="http://www.w3.org/2000/svg"
   xmlns:svg="http://www.w3.org/2000/svg"
   xmlns:rdf="http://www.w3.org/1999/02/22-rdf-syntax-ns#"
   xmlns:cc="http://creativecommons.org/ns#"
   xmlns:dc="http://purl.org/dc/elements/1.1/">
  <defs
     id="defs2">
    <inkscape:path-effect
       effect="rough_hatches"
       id="path-effect2417"
       is_visible="true"
       direction="135.20508,94.257811 , 8.1898255,-4.3467262"
       dist_rdm="10;1"
       growth="0"
       do_bend="true"
       bender="135.20508,99.257811 , 5,0"
       bottom_edge_variation="6.6437498;1"
       top_edge_variation="6.6437498;1"
       bottom_tgt_variation="0;1"
       top_tgt_variation="0;1"
       scale_bf="1"
       scale_bb="1"
       scale_tf="1"
       scale_tb="1"
       top_smth_variation="0;1"
       bottom_smth_variation="0;1"
       fat_output="true"
       stroke_width_top="1"
       stroke_width_bottom="1"
       front_thickness="1"
       back_thickness="0.25"
       lpeversion="0" />
    <linearGradient
       id="linearGradient2359"
       inkscape:swatch="solid">
      <stop
         style="stop-color:#000100;stop-opacity:1;"
         offset="0"
         id="stop2357" />
    </linearGradient>
  </defs>
  <sodipodi:namedview
     id="base"
     pagecolor="#ffffff"
     bordercolor="#666666"
     borderopacity="1.0"
     inkscape:pageopacity="0.0"
     inkscape:pageshadow="2"
     inkscape:zoom="0.49497475"
     inkscape:cx="213.14219"
     inkscape:cy="160.61425"
     inkscape:document-units="mm"
     inkscape:current-layer="layer1"
     showgrid="false"
     inkscape:window-width="1920"
     inkscape:window-height="970"
     inkscape:window-x="0"
     inkscape:window-y="28"
     inkscape:window-maximized="1"
     fit-margin-top="0"
     fit-margin-left="0"
     fit-margin-right="0"
     fit-margin-bottom="0"
     inkscape:pagecheckerboard="0" />
  <metadata
     id="metadata5">
    <rdf:RDF>
      <cc:Work
         rdf:about="">
        <dc:format>image/svg+xml</dc:format>
        <dc:type
           rdf:resource="http://purl.org/dc/dcmitype/StillImage" />
      </cc:Work>
    </rdf:RDF>
  </metadata>
  <g
     inkscape:label="Ebene 1"
     inkscape:groupmode="layer"
     id="layer1"
     transform="translate(-60.464119,-63.40893)">
    <rect
       y="112.29096"
       x="60.464119"
       height="42.846653"
       width="92.494926"
       id="rect6144"
       style="opacity:1;fill:#8aff8a;fill-opacity:1;stroke:none;stroke-width:0.548918;stroke-linecap:square;stroke-linejoin:round;stroke-miterlimit:4;stroke-dasharray:none;stroke-dashoffset:0;stroke-opacity:1;paint-order:fill markers stroke" />
    <path
       style="color:#000000;font-style:normal;font-variant:normal;font-weight:normal;font-stretch:normal;font-size:medium;line-height:normal;font-family:sans-serif;font-variant-ligatures:normal;font-variant-position:normal;font-variant-caps:normal;font-variant-numeric:normal;font-variant-alternates:normal;font-feature-settings:normal;text-indent:0;text-align:start;text-decoration:none;text-decoration-line:none;text-decoration-style:solid;text-decoration-color:#000000;letter-spacing:normal;word-spacing:normal;text-transform:none;writing-mode:lr-tb;direction:ltr;text-orientation:mixed;dominant-baseline:auto;baseline-shift:baseline;text-anchor:start;white-space:normal;shape-padding:0;clip-rule:nonzero;display:inline;overflow:visible;visibility:visible;opacity:0.28;isolation:auto;mix-blend-mode:normal;color-interpolation:sRGB;color-interpolation-filters:linearRGB;solid-color:#000000;solid-opacity:1;vector-effect:none;fill:#0b0000;fill-opacity:1;fill-rule:nonzero;stroke:none;stroke-width:0.6;stroke-linecap:butt;stroke-linejoin:miter;stroke-miterlimit:4;stroke-dasharray:none;stroke-dashoffset:0;stroke-opacity:1;color-rendering:auto;image-rendering:auto;shape-rendering:auto;text-rendering:auto;enable-background:accumulate"
       d="m 185.21986,69.377977 c 0,0 -1.32172,-2.441325 -2.54799,-2.438979 -1.64582,0.0031 2.55204,7.044921 2.55062,8.026295 -0.002,1.704336 -4.7505,-6.323791 -6.01324,-6.321375 -0.84339,0.0016 0.96122,3.711039 2.91399,7.510631 1.95277,3.799592 4.05075,7.689351 4.04883,8.051631 -0.004,0.73061 -2.47741,-3.288115 -5.18338,-7.502171 -2.70341,-4.210066 -5.64176,-8.603498 -6.23749,-8.602358 -0.80777,0.0015 2.10219,5.510615 5.07632,11.141911 2.97413,5.631297 6.00646,11.384821 6.00448,11.875277 -0.003,0.858384 -3.92982,-5.865787 -8.2515,-12.855498 -4.31193,-6.973944 -9.01442,-14.166123 -9.64536,-14.164916 -0.84297,0.0016 3.34537,7.550699 7.48722,15.236659 4.14186,7.68596 8.22804,15.508794 8.23081,16.057905 0.005,0.927139 -4.16578,-6.352326 -8.76023,-13.925522 -4.58284,-7.554051 -9.58354,-15.344401 -10.15347,-15.34331 -0.78195,0.0015 4.63649,9.587921 9.83427,19.280889 5.19778,9.692968 10.16574,19.492474 10.16595,19.920144 4e-4,0.83863 -5.05326,-8.559097 -10.67518,-18.166188 -5.62193,-9.607091 -11.83114,-19.423549 -12.43589,-19.422392 -0.81677,0.0016 5.77695,11.625792 11.96247,23.362185 6.18553,11.736395 11.95117,23.584945 11.94974,24.035165 -0.003,0.87652 -6.00937,-10.87971 -12.81368,-22.854785 -6.80431,-11.975074 -14.43095,-24.16899 -15.03078,-24.167843 -0.81185,0.0016 7.04669,13.738853 14.2529,27.623209 7.20622,13.884359 13.74198,27.915769 13.73963,28.505539 -0.004,1.03373 -6.76133,-12.77916 -14.56673,-26.850196 -7.80541,-14.071034 -16.69313,-28.400206 -17.30894,-28.399028 -0.82783,0.0016 8.28281,15.892435 16.41968,31.822454 8.13686,15.93001 15.29433,31.89919 15.14782,32.05743 -0.28887,0.31201 -8.2357,-16.72822 -17.57587,-33.846194 -9.34018,-17.117972 -20.08587,-34.313684 -20.63778,-34.312628 -0.76392,0.0015 8.32514,15.556456 16.43783,31.064121 8.1127,15.507661 15.25572,30.968001 14.97133,30.780141 -0.59191,-0.391 -8.03565,-15.79345 -16.54366,-31.097856 -8.50801,-15.304409 -18.06687,-30.510778 -18.67161,-30.509621 -0.81676,0.0016 7.64373,14.580928 15.26367,29.105902 7.61994,14.524975 14.40654,28.995555 14.07966,28.779565 -0.63695,-0.4209 -7.57373,-14.46104 -15.37126,-28.395684 -7.79752,-13.934645 -16.44266,-27.763797 -17.0044,-27.762722 -0.77376,0.0015 7.06579,13.611983 14.18739,27.174347 7.12161,13.562359 13.53122,27.076589 13.24281,26.885509 -0.6003,-0.3977 -7.52029,-14.29531 -15.29283,-28.093234 -7.77254,-13.797923 -16.38534,-27.496152 -16.94626,-27.495079 -0.77293,0.0015 6.53707,12.662641 13.24297,25.27647 6.7059,12.613833 12.81315,25.180323 12.52895,24.992473 -0.59944,-0.39622 -6.86875,-12.64695 -13.80164,-24.798345 -6.93288,-12.151398 -14.51858,-24.203465 -15.09711,-24.202358 -0.79055,0.0015 5.88669,11.692642 12.034,23.311631 6.14731,11.618992 11.77238,23.165842 11.33892,22.878792 -0.75097,-0.49732 -6.55005,-11.55055 -12.84872,-22.47918 -6.29868,-10.928628 -13.08489,-21.732646 -13.67121,-21.731525 -0.79834,0.0015 5.17127,10.607964 10.72652,21.144735 5.55526,10.53677 10.7029,21.00387 10.28565,20.72674 -0.73692,-0.48946 -6.42693,-11.225185 -12.59223,-21.838257 -6.1653,-10.613073 -12.79436,-21.103494 -13.39255,-21.10235 -0.81022,0.0015 4.51966,9.513459 9.56902,18.976457 5.04937,9.462999 9.82247,18.87709 9.52977,18.683 -0.61595,-0.40846 -6.02448,-10.44091 -11.87684,-20.37096 -5.85235,-9.930051 -12.1395,-19.757699 -12.74465,-19.756541 -0.81717,0.0016 3.93766,8.487347 8.47443,16.909215 4.53678,8.421868 8.86045,16.77982 8.47584,16.525723 -0.71223,-0.470549 -5.55517,-9.102904 -10.69116,-17.61735 -5.13599,-8.514445 -10.55619,-16.910979 -11.12815,-16.909885 -0.784,0.0015 3.36069,7.426907 7.36957,14.797825 4.00889,7.370918 7.88565,14.687346 7.55748,14.470889 -0.65953,-0.435007 -4.88478,-7.785216 -9.32807,-15.026395 -4.44329,-7.241178 -9.09769,-14.373327 -9.68031,-14.372212 -0.79464,0.0015 2.7102,6.385459 6.14398,12.71288 3.43377,6.32742 6.79978,12.598321 6.45926,12.373767 -0.6752,-0.445252 -3.94498,-5.941869 -7.33752,-11.326866 -3.39254,-5.384997 -6.90262,-10.658373 -7.54463,-10.657145 -0.85403,0.0016 1.89933,5.265364 4.66354,10.477555 2.76422,5.212192 5.54176,10.372844 5.23305,10.168323 -0.64535,-0.427549 -3.95055,-5.977327 -7.36752,-11.419951 -3.41698,-5.442623 -6.94065,-10.778094 -7.49747,-10.777028 -0.76885,0.0015 1.42595,4.246007 3.61772,8.41502 2.19177,4.169012 4.38346,8.262501 3.92863,7.961876 -0.78223,-0.51702 -3.51334,-4.839644 -6.2441,-9.00375 -2.73662,-4.173024 -5.493404,-8.214286 -6.074794,-8.213174 -0.793415,0.0015 0.695916,3.095623 2.255354,6.133287 1.55944,3.037663 3.19059,6.018886 2.85089,5.794642 -0.67702,-0.446915 -2.74043,-3.609612 -4.816547,-6.643786 -2.07959,-3.03925 -4.183634,-5.965201 -4.811711,-5.964 -1.680203,0.0032 3.04289,7.841826 2.149853,7.252921 -1.591683,-1.049623 -4.946232,-6.604961 -6.225325,-6.602514 -1.703143,0.0033 0.07385,2.932322 -0.688482,2.429123 -1.468676,-0.969436 -2.914234,-3.340243 -4.009023,-3.338148 -1.512534,0.0029 0.805305,2.89123 0.805305,2.89123 0,0 -0.650642,-2.007194 -0.265641,-2.00793 0.812094,-0.0016 2.065337,2.057888 4.002343,3.338148 2.642411,1.746496 0.120997,-2.428028 0.693343,-2.429123 0.996398,-0.0019 4.15738,5.245746 6.212112,6.602513 2.752457,1.817484 -2.684748,-7.251869 -2.135338,-7.25292 0.486729,-9.31e-4 2.468134,2.849105 4.519757,5.85033 2.047954,2.995861 4.177874,6.158999 5.083264,6.757456 1.25866,0.831965 -0.0802,-2.1506 -1.72038,-5.339964 -1.64041,-3.189764 -3.590004,-6.587529 -3.361988,-6.587965 0.440042,-8.42e-4 3.072658,3.965316 5.779808,8.10072 2.70104,4.126075 5.4971,8.449386 6.50463,9.116203 1.36505,0.903439 -0.53356,-3.194548 -2.79985,-7.512061 -2.26734,-4.319492 -4.91717,-8.864446 -4.71373,-8.864835 0.41547,-7.95e-4 3.8131,5.260333 7.19889,10.665718 3.37699,5.391338 6.77424,10.969075 7.62169,11.531261 1.21257,0.804399 -1.27433,-4.367069 -4.10618,-9.723078 -2.83458,-5.361147 -6.03773,-10.922247 -5.7491,-10.922799 0.50067,-9.58e-4 3.88554,5.198852 7.24733,10.546998 3.35312,5.334361 6.71458,10.858413 7.59083,11.437013 1.24449,0.821754 -1.83426,-5.467028 -5.32981,-11.933181 -3.50024,-6.474824 -7.45247,-13.153027 -7.22323,-13.153466 0.44127,-8.44e-4 4.96681,7.058454 9.37634,14.26314 4.40953,7.204686 8.69395,14.55476 9.57321,15.135467 1.22974,0.812185 -2.36478,-6.530641 -6.42851,-14.034601 -4.07072,-7.516888 -8.65857,-15.233695 -8.43997,-15.234113 0.43062,-8.24e-4 5.71996,8.32356 10.82036,16.801863 5.10039,8.478302 10.00044,17.110523 10.92986,17.725371 1.25661,0.831304 -2.7546,-7.527194 -7.34831,-16.093633 -4.5937,-8.566438 -9.78682,-17.340822 -9.53505,-17.341304 0.46379,-8.87e-4 6.61794,9.755306 12.43271,19.649562 5.81477,9.894256 11.27812,19.926569 12.10848,20.477939 1.15319,0.76572 -3.30366,-8.64891 -8.40469,-18.255087 -5.10102,-9.606177 -10.86356,-19.403902 -10.61875,-19.40437 0.45684,-8.74e-4 6.95244,10.418774 13.07942,20.996392 6.12698,10.577618 11.87067,21.313205 12.81943,21.944215 1.26801,0.84332 -3.55983,-9.62432 -9.16185,-20.302912 -5.60203,-10.678587 -11.99946,-21.568117 -11.76652,-21.568563 0.44496,-8.51e-4 7.09767,10.733079 13.35778,21.626594 6.2601,10.893511 12.11231,21.946621 13.07367,22.584111 1.27846,0.84776 -4.02309,-10.69963 -10.21326,-22.459071 -6.19016,-11.759437 -13.29237,-23.730922 -13.06722,-23.731352 0.43718,-8.37e-4 7.88704,11.981776 14.77938,24.098379 6.89234,12.116604 13.21279,24.367194 14.02131,24.902324 1.12333,0.74349 -4.65679,-11.82355 -11.40181,-24.576559 -6.74502,-12.753008 -14.47705,-25.691987 -14.26951,-25.692384 0.41957,-8.03e-4 8.89351,13.628552 16.62289,27.391969 7.72938,13.763414 14.6978,27.660894 15.50495,28.196344 1.11862,0.74208 -4.96064,-12.77269 -12.11698,-26.473072 -7.15633,-13.700384 -15.41339,-27.586386 -15.20503,-27.586784 0.42038,-8.05e-4 8.92699,13.760048 16.68138,27.660475 7.75439,13.900431 14.73935,27.940431 15.5819,28.497931 1.15222,0.76239 -5.30083,-13.70873 -12.9521,-28.370578 -7.65127,-14.661845 -16.52676,-29.514409 -16.2754,-29.51489 0.46339,-8.86e-4 9.88114,15.137769 18.3438,30.408253 8.46267,15.270485 15.95231,30.672795 16.74819,31.199225 1.103,0.72958 -5.70313,-14.7313 -13.84324,-30.374665 -8.14011,-15.643364 -17.64069,-31.469217 -17.44216,-31.469597 0.41055,-7.86e-4 11.08118,17.246183 20.39763,34.389717 9.31646,17.143535 17.29501,34.183635 17.67962,33.769105 0.52729,-0.5683 -6.3343,-16.53802 -14.39665,-32.36579 -8.06234,-15.827771 -17.30544,-31.513592 -17.04301,-31.514094 0.47445,-9.08e-4 9.34866,14.476249 17.15819,28.621208 7.80952,14.144956 14.59894,27.957716 14.60691,26.628016 0.0116,-1.92935 -6.18357,-15.64991 -13.31139,-29.394259 -7.04707,-13.588657 -14.81526,-26.734018 -14.56881,-26.734489 0.45848,-8.77e-4 8.07309,12.33514 14.88627,24.381196 6.81318,12.046062 12.8581,23.802152 12.86409,22.641432 0.009,-1.69768 -5.43333,-13.32546 -11.52039,-24.88858 -6.02881,-11.452462 -12.54834,-22.508289 -12.29697,-22.50877 0.46339,-8.87e-4 6.66284,9.952559 12.29909,19.628076 5.65614,9.709681 10.7351,19.038944 10.73675,17.960504 0.002,-1.60053 -4.65476,-11.246643 -9.7386,-20.742878 -5.04263,-9.419264 -10.39972,-18.457741 -10.18317,-18.458155 0.42858,-8.2e-4 5.42165,7.92192 10.02357,15.5421 4.61147,7.636001 8.8352,14.921975 8.83156,13.726731 -0.005,-1.660179 -3.79067,-9.379673 -7.80663,-16.853062 -3.98804,-7.421448 -8.12635,-14.44097 -7.84878,-14.441501 0.4896,-9.37e-4 5.18365,7.319141 9.51538,14.356966 4.33967,7.050724 8.32066,13.780498 8.32741,12.663447 0.009,-1.543203 -2.73225,-7.238154 -5.57331,-12.64348 -2.82552,-5.37577 -5.70379,-10.373244 -5.46143,-10.373707 0.45438,-8.7e-4 3.3869,4.516668 6.11603,8.78872 2.73054,4.274265 5.26547,8.296406 5.27261,7.315809 0.01,-1.369654 -1.80294,-5.230902 -3.61742,-8.797078 -1.80709,-3.551651 -3.59223,-6.764652 -3.31425,-6.765184 0.98004,-0.0019 5.99306,8.507685 6.00059,6.321375 0.01,-2.909272 -3.04957,-8.025309 -2.53456,-8.026295 0.9409,-0.0018 2.01539,1.555679 2.01539,1.555679 z m -0.59747,-0.931581 c 0,0 -1.50402,-2.720907 -2.59651,-2.718827 -1.51066,0.0029 0.37836,3.116723 0.38361,3.82778 0.0105,1.426197 -0.98105,-0.223498 -2.11273,-0.221343 -1.55574,0.003 3.26982,8.155111 3.27222,8.99434 0.002,0.786333 -1.98025,-2.249687 -4.16261,-5.485295 -2.18168,-3.234596 -4.56868,-6.665744 -5.16523,-6.664608 -0.80857,0.0015 2.18174,5.572824 5.22555,11.262057 3.04381,5.689232 6.13498,11.496413 6.13226,11.969743 -0.005,0.844735 -3.1012,-4.332397 -6.48224,-9.746676 -3.376,-5.40621 -7.03851,-11.025358 -7.58919,-11.02431 -0.76272,0.0015 2.49206,6.027146 5.76461,12.170526 3.27254,6.14338 6.55621,12.404446 6.55706,12.876643 0.002,0.847386 -3.85077,-5.826544 -8.10306,-12.766399 -4.24204,-6.923127 -8.8787,-14.061993 -9.48508,-14.060839 -0.81841,0.0016 4.30049,9.097925 9.22869,18.319863 4.92819,9.221938 9.65493,18.569449 9.65289,19.073289 -0.004,0.91029 -5.44163,-9.175798 -11.52985,-19.489185 -6.08821,-10.313388 -12.85006,-20.854073 -13.4294,-20.85297 -0.79136,0.0015 5.84355,11.437973 12.05207,22.989179 6.20853,11.551206 11.97828,23.217146 11.97838,23.677616 2e-4,0.88257 -5.64207,-9.94603 -12.00577,-20.994997 -6.3637,-11.04897 -13.47302,-22.318316 -14.03271,-22.31725 -0.77172,0.0015 6.05489,11.887382 12.40127,23.913785 6.34638,12.026402 12.19677,24.193292 12.20087,24.756722 0.007,1.00287 -6.18449,-11.20341 -13.27623,-23.660118 -7.09173,-12.456705 -15.1144,-25.163826 -15.75067,-25.162615 -0.84831,0.0016 7.90983,15.12589 15.78807,30.368473 7.87823,15.24258 14.85961,30.60347 14.85927,31.07832 -6.6e-4,0.93541 -7.43682,-14.84894 -16.25576,-30.866852 -8.81894,-16.017907 -19.05743,-32.269365 -19.69534,-32.268151 -0.84994,0.0016 8.32925,15.727674 16.44293,31.388883 8.11368,15.66121 15.17164,31.25757 14.78245,30.9998 -0.69504,-0.46035 -8.21828,-16.17635 -16.88975,-31.776948 -8.67148,-15.600601 -18.47426,-31.085809 -19.11545,-31.084589 -0.85321,0.0016 7.496,14.344817 14.98097,28.624598 7.48496,14.279779 14.11441,28.496149 13.73289,28.244129 -0.69123,-0.4566 -7.58957,-14.40292 -15.38394,-28.234793 -7.79437,-13.831872 -16.4699,-27.549297 -17.09266,-27.548111 -0.83478,0.0016 6.6015,12.891561 13.3803,25.732987 6.77879,12.841427 12.90611,25.634307 12.61432,25.441707 -0.6047,-0.39914 -7.15093,-13.38056 -14.48773,-26.261909 -7.3368,-12.88135 -15.45205,-25.66263 -16.05105,-25.661489 -0.81103,0.0015 6.33577,12.361693 12.85081,24.651896 6.51503,12.290202 12.40659,24.510462 11.98577,24.232212 -0.73622,-0.48678 -6.53893,-11.68619 -12.89456,-22.76363 -6.35563,-11.077435 -13.25157,-22.032887 -13.85755,-22.031733 -0.818,0.0016 4.82313,10.063538 10.10248,20.070332 5.27934,10.006794 10.20222,19.958401 9.87031,19.739211 -0.65084,-0.42981 -6.5891,-11.698901 -13.1006,-22.860266 -6.5115,-11.161366 -13.58498,-22.215008 -14.1508,-22.213931 -0.77785,0.0015 5.83238,11.404097 11.90702,22.733646 6.07464,11.329549 11.62169,22.586031 11.1842,22.295241 -0.75751,-0.50349 -6.66335,-11.633141 -13.11838,-22.63661 -6.45503,-11.003468 -13.4463,-21.880757 -14.08994,-21.879532 -0.85567,0.0016 4.10865,8.803986 8.80773,17.533881 4.69909,8.729896 9.13909,17.38733 8.70184,17.099115 -0.76354,-0.503293 -5.02332,-8.048194 -9.50666,-15.466982 -4.48335,-7.418787 -9.18162,-14.711463 -9.79005,-14.710304 -0.82046,0.0016 2.7963,6.691103 6.33032,13.331265 3.53402,6.640162 6.98847,13.230945 6.69143,13.034992 -0.62652,-0.413299 -4.80536,-7.771455 -9.23578,-15.025986 -4.43042,-7.254532 -9.10545,-14.405439 -9.73435,-14.404241 -0.84093,0.0016 3.31081,7.506359 7.28965,14.934766 3.97884,7.428406 7.79032,14.78046 7.33301,14.476652 -0.78809,-0.523554 -5.16281,-8.1442 -9.76773,-15.633652 -4.60492,-7.489453 -9.43097,-14.847713 -10.07052,-14.846495 -0.85158,0.0016 2.27862,5.814027 5.35872,11.558738 3.08009,5.744712 6.11388,11.421729 5.70676,11.152574 -0.72682,-0.480512 -3.64401,-5.256106 -6.60407,-9.875621 -2.96709,-4.630485 -6.00253,-9.1378 -6.63226,-9.136601 -0.84176,0.0016 0.82414,3.462921 2.52738,6.847275 1.70323,3.384354 3.4464,6.691744 2.98237,6.385491 -0.79563,-0.525107 -2.98492,-3.895559 -5.16243,-7.114551 -2.18165,-3.225111 -4.36529,-6.317114 -4.99666,-6.315912 -0.8434,0.0016 0.68178,3.228388 2.25393,6.378909 1.57214,3.150521 3.19365,6.224782 2.73657,5.921346 -1.60032,-1.06237 -7.720157,-11.445914 -8.879685,-11.443707 -1.583587,0.003 2.689755,7.20815 1.734715,6.574351 -1.649709,-1.094803 -6.851451,-9.777602 -8.024887,-9.775368 -1.597489,0.003 2.307888,6.494819 1.416928,5.902752 -1.593289,-1.058784 -5.706046,-7.845354 -6.857355,-7.843162 -1.569234,0.003 0.684235,2.776583 0.684235,2.776583 0,0 -0.584611,-1.892443 -0.142898,-1.893284 0.868614,-0.0017 4.782197,6.473234 6.840816,7.843162 2.759964,1.836645 -1.871164,-5.901863 -1.404481,-5.902751 0.890738,-0.0017 5.89441,8.373228 8.004272,9.775368 2.80356,1.863145 -2.173615,-6.573489 -1.720849,-6.574351 0.876825,-0.0017 6.800689,10.077671 8.855549,11.443707 1.37037,0.910994 0.0423,-2.164258 -1.60864,-5.466655 -1.65109,-3.302624 -3.63391,-6.833071 -3.35592,-6.8336 0.49002,-9.33e-4 2.55153,3.01608 4.7052,6.203627 2.14934,3.181128 4.40458,6.55205 5.42557,7.226835 1.37199,0.906762 -0.0776,-2.402337 -1.85742,-5.936355 -1.78017,-3.534604 -3.90077,-7.295884 -3.62442,-7.29641 0.48837,-9.3e-4 3.39939,4.432276 6.33642,9.025639 2.92971,4.5819 5.91087,9.358347 6.85981,9.986582 1.31217,0.868703 -1.43128,-4.822207 -4.57592,-10.708728 -3.14821,-5.893198 -6.72784,-12.002038 -6.44167,-12.002583 0.4982,-9.49e-4 5.19393,7.284062 9.76393,14.736824 4.56999,7.452761 9.00286,15.073272 10.01005,15.743322 1.35722,0.902911 -2.17065,-6.47591 -6.20282,-14.037968 -4.03915,-7.575173 -8.63335,-15.372925 -8.35782,-15.37345 0.48755,-9.28e-4 5.03334,7.07753 9.42954,14.29577 4.39619,7.21824 8.63354,14.576261 9.47853,15.134458 1.18996,0.786088 -1.97863,-5.826322 -5.56852,-12.601107 -3.59548,-6.785329 -7.65268,-13.764665 -7.39763,-13.76515 0.46708,-8.9e-4 5.0368,7.220093 9.4861,14.602967 4.4493,7.382874 8.76727,14.92764 9.74698,15.574315 1.30554,0.86176 -2.81938,-7.796213 -7.57268,-16.669763 -4.7533,-8.87355 -10.15414,-17.962677 -9.86387,-17.963229 0.5023,-9.57e-4 7.35747,10.80543 13.77224,21.773381 6.41478,10.967951 12.37273,22.097461 13.34222,22.742761 1.28905,0.858 -3.93319,-10.399015 -10.05154,-21.870637 -6.11835,-11.471622 -13.15719,-23.157846 -12.94473,-23.15825 0.42447,-8.08e-4 7.36183,10.982625 13.83292,22.108819 6.4711,11.126194 12.46116,22.395148 13.32343,22.965378 1.18076,0.78086 -3.42232,-9.17128 -8.74796,-19.318765 -5.32564,-10.147482 -11.39347,-20.490298 -11.14088,-20.490779 0.46463,-8.84e-4 7.22592,10.885055 13.5419,21.927667 6.31598,11.042607 12.17057,22.241897 13.11574,22.867697 1.26014,0.83435 -4.30331,-11.38645 -10.85673,-23.815945 -6.55341,-12.429496 -14.12239,-25.067696 -13.87676,-25.068163 0.45765,-8.72e-4 8.43428,12.71156 15.72818,25.558419 7.2939,12.846859 13.88893,25.828139 14.70111,26.364979 1.12465,0.74338 -4.67247,-12.05004 -11.48673,-25.029428 -6.81426,-12.979391 -14.66936,-26.144754 -14.39998,-26.145267 0.48141,-9.16e-4 9.01693,13.648315 16.76699,27.446022 7.75006,13.797703 14.69552,27.743893 15.59198,28.336883 1.20573,0.79757 -5.08847,-13.41933 -12.60328,-27.835773 -7.51482,-14.416438 -16.27847,-29.032406 -15.99066,-29.032954 0.49984,-9.52e-4 10.15924,15.41673 18.78346,30.983501 8.62421,15.566766 16.19149,31.282626 17.08918,31.878036 1.20312,0.79798 -5.51466,-14.79892 -13.65232,-30.595449 -8.13765,-15.79653 -17.72604,-31.792692 -17.4415,-31.793234 0.49656,-9.45e-4 10.72043,16.404036 19.53752,32.498639 8.81709,16.094604 16.27695,31.878824 16.28045,30.636364 0.005,-1.89738 -6.62032,-16.87012 -14.43639,-32.000271 -7.71568,-14.935804 -16.36428,-29.445984 -16.08138,-29.446522 0.49492,-9.43e-4 8.50633,12.852663 15.60508,25.382543 7.13643,12.5964 13.32523,24.66951 13.31887,23.44019 -0.01,-1.86192 -5.52977,-13.77612 -11.78198,-25.636438 -6.18546,-11.733702 -12.92385,-23.033677 -12.71753,-23.03407 0.41834,-7.96e-4 7.51622,11.409252 13.88975,22.528506 6.40267,11.170082 12.0553,21.896882 12.0574,20.783742 0.003,-1.69792 -5.44114,-13.140731 -11.55134,-24.522636 -6.05016,-11.270071 -12.60667,-22.143729 -12.3807,-22.144159 0.43799,-8.34e-4 7.18806,10.675335 13.28756,21.056398 6.1236,10.422081 11.5796,20.425997 11.58662,19.285757 0.0102,-1.66237 -4.40747,-10.86111 -9.22139,-19.887002 -4.7741,-8.951238 -9.83435,-17.505668 -9.58135,-17.50615 0.46503,-8.85e-4 5.0938,7.26862 9.35528,14.256999 4.26978,7.001985 8.17597,13.682026 8.1763,12.570238 4.6e-4,-1.553702 -2.98983,-7.742523 -6.13043,-13.661285 -3.12129,-5.882371 -6.33574,-11.385508 -6.13843,-11.385883 0.40933,-7.79e-4 4.06437,5.744861 7.46281,11.214249 3.40193,5.475028 6.55618,10.656883 6.56482,9.556737 0.0119,-1.516322 -2.78775,-7.261919 -5.69936,-12.729499 -2.89507,-5.436519 -5.85263,-10.501838 -5.60945,-10.502301 0.45519,-8.67e-4 2.83805,3.552858 5.04765,6.848675 2.20925,3.295303 4.25532,6.33424 4.25456,5.301228 -0.002,-2.800458 -3.67817,-8.993531 -3.25325,-8.99434 0.84897,-0.0016 2.12232,2.1243 2.11226,0.221342 -0.0138,-2.618098 -0.7554,-3.827056 -0.37554,-3.827779 0.80659,-0.0015 2.05847,1.835527 2.05847,1.835527 z"
       id="path852"
       inkscape:connector-curvature="0"
       inkscape:path-effect="#path-effect2417"
       inkscape:original-d="m 185.22461,66.039062 -100.039063,0.191407 99.943363,66.246091 0.002,-0.55664 z M 184.625,66.640625 184.5313,131.36133 87.168019,66.826172 Z" />
    <g
       id="g842"
       transform="rotate(81.666458,100.57566,52.502199)">
      <rect
         y="85.857071"
         x="173.19066"
         height="10.423512"
         width="5.8799295"
         id="rect817"
         style="opacity:1;fill:#ffb800;fill-opacity:1;stroke:#fc8b00;stroke-width:1;stroke-linecap:square;stroke-linejoin:round;stroke-miterlimit:4;stroke-dasharray:none;stroke-dashoffset:0;stroke-opacity:1;paint-order:fill markers stroke" />
      <circle
         r="1.3363476"
         cy="89.064308"
         cx="176.13063"
         id="path825"
         style="opacity:1;fill:#000100;fill-opacity:1;stroke:none;stroke-width:1;stroke-linecap:square;stroke-linejoin:round;stroke-miterlimit:4;stroke-dasharray:none;stroke-dashoffset:0;stroke-opacity:1;paint-order:fill markers stroke" />
      <g
         transform="translate(-1.6593933e-6)"
         id="g835">
        <path
           style="fill:none;stroke:#000000;stroke-width:1.165;stroke-linecap:butt;stroke-linejoin:miter;stroke-miterlimit:4;stroke-dasharray:none;stroke-opacity:1"
           d="m 172.5292,92.784305 v 3.496281"
           id="path829"
           inkscape:connector-curvature="0" />
        <path
           inkscape:connector-curvature="0"
           id="path831"
           d="m 179.73205,92.784305 v 3.496281"
           style="fill:none;stroke:#000000;stroke-width:1.165;stroke-linecap:butt;stroke-linejoin:miter;stroke-miterlimit:4;stroke-dasharray:none;stroke-opacity:1" />
      </g>
    </g>
    <path
       style="fill:none;stroke:#00a600;stroke-width:1.065;stroke-linecap:butt;stroke-linejoin:miter;stroke-miterlimit:4;stroke-dasharray:none;stroke-opacity:1"
       d="m 60.464119,112.29096 h 92.494921 v 42.84666"
       id="path6149"
       inkscape:connector-curvature="0"
       sodipodi:nodetypes="ccc" />
    <path
       style="fill:none;stroke:#000000;stroke-width:0.264583px;stroke-linecap:butt;stroke-linejoin:miter;stroke-opacity:1"
       d="m 167.44345,95.538688 v 20.977682 l -33.63988,31.27753 -35.529762,-0.66146 -0.09449,-51.215775 56.696422,0.377978 V 76.639879 h 12.7567 v 3.874257 0.188987"
       id="path846"
       inkscape:connector-curvature="0"
       sodipodi:nodetypes="cccccccccc" />
    <rect
       style="opacity:1;fill:#c8c8c8;fill-opacity:1;stroke:#0b0000;stroke-width:0.5;stroke-linecap:square;stroke-linejoin:round;stroke-miterlimit:4;stroke-dasharray:none;stroke-dashoffset:0;stroke-opacity:1;paint-order:fill markers stroke"
       id="rect844"
       width="11.811756"
       height="16.441963"
       x="161.67932"
       y="79.096725" />
    <path
       style="fill:none;stroke:#ff0000;stroke-width:0.264583px;stroke-linecap:butt;stroke-linejoin:miter;stroke-opacity:1"
       d="m 79.136198,132.0103 14.38473,-2.20261 v 0 0"
       id="path848"
       inkscape:connector-curvature="0" />
    <path
       inkscape:connector-curvature="0"
       id="path850"
       d="m 93.520928,129.77233 5.309915,-0.74718 0.03124,17.51817 34.698747,0.71685 13.83747,-12.83369 19.43255,-18.21424 0.0446,-20.208806"
       style="fill:none;stroke:#ff0000;stroke-width:0.265;stroke-linecap:butt;stroke-linejoin:miter;stroke-miterlimit:4;stroke-dasharray:0.265, 0.53;stroke-dashoffset:0;stroke-opacity:1"
       sodipodi:nodetypes="ccccccc" />
    <text
       xml:space="preserve"
       style="font-style:normal;font-weight:normal;font-size:3.52778px;line-height:1.25;font-family:sans-serif;letter-spacing:0px;word-spacing:0px;fill:#000000;fill-opacity:1;stroke:none;stroke-width:0.264583"
       x="163.21078"
       y="88.35714"
       id="text6124"><tspan
         sodipodi:role="line"
         id="tspan6122"
         x="163.21078"
         y="88.35714"
         style="stroke-width:0.264583">Base</tspan></text>
    <text
       xml:space="preserve"
       style="font-style:normal;font-weight:normal;font-size:3.52778px;line-height:1.25;font-family:sans-serif;letter-spacing:0px;word-spacing:0px;fill:#000000;fill-opacity:1;stroke:none;stroke-width:0.264583"
       x="105.64435"
       y="75.316963"
       id="text6128"><tspan
         sodipodi:role="line"
         id="tspan6126"
         x="105.64435"
         y="75.316963"
         style="stroke-width:0.264583">Area with bad RTK</tspan></text>
    <text
       xml:space="preserve"
       style="font-style:normal;font-weight:normal;font-size:3.52778px;line-height:1.25;font-family:sans-serif;letter-spacing:0px;word-spacing:0px;fill:#000000;fill-opacity:1;stroke:none;stroke-width:0.264583"
       x="99.124252"
       y="99.790916"
       id="text6132"><tspan
         sodipodi:role="line"
         id="tspan6130"
         x="99.124252"
         y="99.790916"
         style="stroke-width:0.264583">Perimeter wire</tspan></text>
    <path
       sodipodi:nodetypes="cccc"
       inkscape:connector-curvature="0"
       id="path6134"
       d="m 168.1049,95.798547 v 20.977683 l -34.25409,31.63188 -23.62351,-0.47247"
       style="fill:none;stroke:#0000ff;stroke-width:0.264583;stroke-linecap:butt;stroke-linejoin:miter;stroke-miterlimit:4;stroke-dasharray:0.264583, 0.529167;stroke-dashoffset:0;stroke-opacity:1" />
    <text
       xml:space="preserve"
       style="font-style:normal;font-weight:normal;font-size:3.52778px;line-height:1.25;font-family:sans-serif;letter-spacing:0px;word-spacing:0px;fill:#ff0000;fill-opacity:1;stroke:none;stroke-width:0.264583"
       x="160.36172"
       y="133.56468"
       id="text6138"><tspan
         sodipodi:role="line"
         id="tspan6136"
         x="160.36172"
         y="133.56468"
         style="fill:#ff0000;fill-opacity:1;stroke-width:0.264583">Docking</tspan></text>
    <text
       xml:space="preserve"
       style="font-style:normal;font-weight:normal;font-size:3.52778px;line-height:1.25;font-family:sans-serif;letter-spacing:0px;word-spacing:0px;fill:#0000ff;fill-opacity:1;stroke:none;stroke-width:0.264583"
       x="160.40134"
       y="137.70735"
       id="text6142"><tspan
         sodipodi:role="line"
         id="tspan6140"
         x="160.40134"
         y="137.70735"
         style="fill:#0000ff;fill-opacity:1;stroke-width:0.264583">Undocking</tspan></text>
    <text
       xml:space="preserve"
       style="font-style:normal;font-weight:normal;font-size:3.52778px;line-height:1.25;font-family:sans-serif;letter-spacing:0px;word-spacing:0px;fill:#008c00;fill-opacity:1;stroke:none;stroke-width:0.264583"
       x="63.907696"
       y="152.67265"
       id="text6153"><tspan
         sodipodi:role="line"
         id="tspan6151"
         x="63.907696"
         y="152.67265"
         style="fill:#008c00;fill-opacity:1;stroke-width:0.264583">Mowing area</tspan></text>
  </g>
</svg>
