<?xml version="1.0" encoding="UTF-8" standalone="no"?>
<!-- Created with Inkscape (http://www.inkscape.org/) -->

<svg
   xmlns:osb="http://www.openswatchbook.org/uri/2009/osb"
   xmlns:dc="http://purl.org/dc/elements/1.1/"
   xmlns:cc="http://creativecommons.org/ns#"
   xmlns:rdf="http://www.w3.org/1999/02/22-rdf-syntax-ns#"
   xmlns:svg="http://www.w3.org/2000/svg"
   xmlns="http://www.w3.org/2000/svg"
   xmlns:sodipodi="http://sodipodi.sourceforge.net/DTD/sodipodi-0.dtd"
   xmlns:inkscape="http://www.inkscape.org/namespaces/inkscape"
   width="106.41789mm"
   height="91.728691mm"
   viewBox="0 0 106.41789 91.728691"
   version="1.1"
   id="svg8"
   inkscape:version="0.92.5 (2060ec1f9f, 2020-04-08)"
   sodipodi:docname="perimeter.svg">
  <defs
     id="defs2">
    <inkscape:path-effect
       effect="rough_hatches"
       id="path-effect2417"
       is_visible="true"
       direction="135.20508,94.257811 , 8.1898255,-4.3467262"
       dist_rdm="10;1"
       growth="0"
       do_bend="true"
       bender="135.20508,99.257811 , 5,0"
       bottom_edge_variation="6.6437498;1"
       top_edge_variation="6.6437498;1"
       bottom_tgt_variation="0;1"
       top_tgt_variation="0;1"
       scale_bf="1"
       scale_bb="1"
       scale_tf="1"
       scale_tb="1"
       top_smth_variation="0;1"
       bottom_smth_variation="0;1"
       fat_output="true"
       stroke_width_top="1"
       stroke_width_bottom="1"
       front_thickness="1"
       back_thickness="0.25" />
    <linearGradient
       id="linearGradient2359"
       osb:paint="solid">
      <stop
         style="stop-color:#000100;stop-opacity:1;"
         offset="0"
         id="stop2357" />
    </linearGradient>
  </defs>
  <sodipodi:namedview
     id="base"
     pagecolor="#ffffff"
     bordercolor="#666666"
     borderopacity="1.0"
     inkscape:pageopacity="0.0"
     inkscape:pageshadow="2"
     inkscape:zoom="1.979899"
     inkscape:cx="97.069623"
     inkscape:cy="154.13102"
     inkscape:document-units="mm"
     inkscape:current-layer="layer1"
     showgrid="false"
     inkscape:window-width="1920"
     inkscape:window-height="977"
     inkscape:window-x="0"
     inkscape:window-y="28"
     inkscape:window-maximized="1"
     fit-margin-top="0"
     fit-margin-left="0"
     fit-margin-right="0"
     fit-margin-bottom="0" />
  <metadata
     id="metadata5">
    <rdf:RDF>
      <cc:Work
         rdf:about="">
        <dc:format>image/svg+xml</dc:format>
        <dc:type
           rdf:resource="http://purl.org/dc/dcmitype/StillImage" />
        <dc:title></dc:title>
      </cc:Work>
    </rdf:RDF>
  </metadata>
  <g
     inkscape:label="Ebene 1"
     inkscape:groupmode="layer"
     id="layer1"
     transform="translate(-80.252265,-63.40893)">
    <rect
       y="112.29096"
       x="80.252266"
       height="42.846653"
       width="72.706779"
       id="rect6144"
       style="opacity:1;fill:#8aff8a;fill-opacity:1;stroke:none;stroke-width:0.48667222;stroke-linecap:square;stroke-linejoin:round;stroke-miterlimit:4;stroke-dasharray:none;stroke-dashoffset:0;stroke-opacity:1;paint-order:fill markers stroke" />
    <path
       style="color:#000000;font-style:normal;font-variant:normal;font-weight:normal;font-stretch:normal;font-size:medium;line-height:normal;font-family:sans-serif;font-variant-ligatures:normal;font-variant-position:normal;font-variant-caps:normal;font-variant-numeric:normal;font-variant-alternates:normal;font-feature-settings:normal;text-indent:0;text-align:start;text-decoration:none;text-decoration-line:none;text-decoration-style:solid;text-decoration-color:#000000;letter-spacing:normal;word-spacing:normal;text-transform:none;writing-mode:lr-tb;direction:ltr;text-orientation:mixed;dominant-baseline:auto;baseline-shift:baseline;text-anchor:start;white-space:normal;shape-padding:0;clip-rule:nonzero;display:inline;overflow:visible;visibility:visible;opacity:0.28000004;isolation:auto;mix-blend-mode:normal;color-interpolation:sRGB;color-interpolation-filters:linearRGB;solid-color:#000000;solid-opacity:1;vector-effect:none;fill:#0b0000;fill-opacity:1;fill-rule:nonzero;stroke:none;stroke-width:0.60000002;stroke-linecap:butt;stroke-linejoin:miter;stroke-miterlimit:4;stroke-dasharray:none;stroke-dashoffset:0;stroke-opacity:1;color-rendering:auto;image-rendering:auto;shape-rendering:auto;text-rendering:auto;enable-background:accumulate"
       d="m 185.21986,69.377977 c 0,0 -1.32172,-2.441325 -2.54799,-2.438979 -1.64582,0.0031 2.55204,7.044921 2.55062,8.026295 -0.002,1.704336 -4.7505,-6.323791 -6.01324,-6.321375 -0.83926,0.0016 0.96123,3.711047 2.91399,7.510631 1.95869,3.811108 4.05081,7.677835 4.04883,8.051631 -0.004,0.73061 -2.47741,-3.288115 -5.18338,-7.502171 -2.7034,-4.210052 -5.63443,-8.603512 -6.23749,-8.602358 -0.79858,0.0015 2.1022,5.510632 5.07632,11.141911 2.98696,5.655576 6.00656,11.360541 6.00448,11.875277 -0.003,0.858384 -3.92982,-5.865787 -8.2515,-12.855498 -4.31191,-6.973907 -8.99546,-14.166159 -9.64536,-14.164916 -0.82544,0.0016 3.34539,7.550732 7.48722,15.236659 4.16538,7.729599 8.22782,15.465155 8.23081,16.057905 0.005,0.927139 -4.16578,-6.352326 -8.76023,-13.925522 -4.58282,-7.554008 -9.56131,-15.344443 -10.15347,-15.34331 -0.75288,0.0014 4.63652,9.587977 9.83427,19.280889 5.23264,9.757972 10.16571,19.427474 10.16595,19.920144 3.8e-4,0.80027 -5.03081,-8.520738 -10.67518,-18.166188 -5.62189,-9.607025 -11.79686,-19.423615 -12.43589,-19.422392 -0.77377,0.0015 5.77699,11.625874 11.96247,23.362185 6.23558,11.831365 11.95147,23.489975 11.94974,24.035165 -0.003,0.87652 -6.00937,-10.87971 -12.81368,-22.854785 -6.80425,-11.974974 -14.37865,-24.169091 -15.03078,-24.167843 -0.75205,0.0014 7.04675,13.738968 14.2529,27.623209 7.27685,14.020459 13.74253,27.779669 13.73963,28.505539 -0.004,1.03373 -6.76133,-12.77916 -14.56673,-26.850196 -7.80533,-14.070896 -16.62089,-28.400344 -17.30894,-28.399028 -0.82783,0.0016 8.28281,15.892435 16.41968,31.822454 8.16751,15.99001 15.34987,31.83919 15.14782,32.05743 -0.28887,0.31201 -8.2357,-16.72822 -17.57587,-33.846194 -9.34007,-17.117782 -19.98666,-34.313874 -20.63778,-34.312628 -0.76392,0.0015 8.32514,15.556456 16.43783,31.064121 8.07221,15.430271 15.37288,31.045391 14.97133,30.780141 -0.59191,-0.391 -8.03565,-15.79345 -16.54366,-31.097856 -8.50794,-15.304266 -17.9924,-30.510921 -18.67161,-30.509621 -0.74562,0.0014 7.6438,14.581064 15.26367,29.105902 7.58455,14.457515 14.50863,29.063025 14.07966,28.779565 -0.63695,-0.4209 -7.57373,-14.46104 -15.37126,-28.395684 -7.79745,-13.934528 -16.38135,-27.763914 -17.0044,-27.762722 -0.71181,0.0014 7.06585,13.612102 14.18739,27.174347 7.09051,13.503139 13.62061,27.135809 13.24281,26.885509 -0.6003,-0.3977 -7.52029,-14.29531 -15.29283,-28.093234 -7.77247,-13.797807 -16.3251,-27.496267 -16.94626,-27.495079 -0.71928,0.0014 6.53712,12.662744 13.24297,25.27647 6.67865,12.562573 12.8907,25.231583 12.52895,24.992473 -0.59944,-0.39622 -6.86875,-12.64695 -13.80164,-24.798345 -6.93283,-12.151309 -14.47212,-24.203554 -15.09711,-24.202358 -0.7444,0.0014 5.88674,11.69273 12.034,23.311631 6.12498,11.576792 11.83609,23.208032 11.33892,22.878792 -0.75097,-0.49732 -6.55005,-11.55055 -12.84872,-22.47918 -6.29864,-10.928557 -13.04804,-21.732717 -13.67121,-21.731525 -0.7603,0.0015 5.1713,10.608037 10.72652,21.144735 5.53701,10.50215 10.75502,21.03849 10.28565,20.72674 -0.73692,-0.48946 -6.42693,-11.225185 -12.59223,-21.838257 -6.16526,-10.613006 -12.75964,-21.103561 -13.39255,-21.10235 -0.77978,0.0015 4.51969,9.513517 9.56902,18.976457 5.03414,9.434448 9.86552,18.90564 9.52977,18.683 -0.61595,-0.40846 -6.02448,-10.44091 -11.87684,-20.37096 -5.85232,-9.929992 -12.10887,-19.757757 -12.74465,-19.756541 -0.79273,0.0015 3.93768,8.487394 8.47443,16.909215 4.52497,8.399954 8.89362,16.801735 8.47584,16.525723 -0.66636,-0.440241 -5.57346,-9.133212 -10.69116,-17.61735 -5.13597,-8.514402 -10.53415,-16.911021 -11.12815,-16.909885 -0.7653,0.0015 3.36071,7.426943 7.36957,14.797825 3.99971,7.354041 7.91124,14.704223 7.55748,14.470889 -0.62563,-0.412651 -4.89849,-7.807572 -9.32807,-15.026395 -4.44328,-7.241148 -9.08187,-14.373357 -9.68031,-14.372212 -0.78074,0.0015 2.71022,6.385486 6.14398,12.71288 3.42717,6.315252 6.81823,12.610489 6.45926,12.373767 -0.65515,-0.432035 -3.9533,-5.955087 -7.33752,-11.326866 -3.39253,-5.384981 -6.89417,-10.65839 -7.54463,-10.657145 -0.84456,0.0016 1.89934,5.265382 4.66354,10.477555 2.75992,5.204084 5.554,10.380951 5.23305,10.168323 -0.62503,-0.41409 -3.959,-5.990786 -7.36752,-11.419951 -3.41697,-5.442607 -6.93197,-10.77811 -7.49747,-10.777028 -0.76251,0.0015 1.42596,4.246019 3.61772,8.41502 2.18937,4.164457 4.39035,8.267056 3.92863,7.961876 -0.78223,-0.51702 -3.51334,-4.839644 -6.2441,-9.00375 -2.73661,-4.173015 -5.488684,-8.214295 -6.074794,-8.213174 -0.790041,0.0015 0.695919,3.095629 2.255354,6.133287 1.55822,3.035297 3.19418,6.021253 2.85089,5.794642 -0.67702,-0.446915 -2.74043,-3.609612 -4.816547,-6.643786 -2.079587,-3.039245 -4.181227,-5.965206 -4.811711,-5.964 -1.680203,0.0032 3.04289,7.841826 2.149853,7.252921 -1.591683,-1.049623 -4.946232,-6.604961 -6.225325,-6.602514 -1.703143,0.0033 0.07385,2.932322 -0.688482,2.429123 -1.468676,-0.969436 -2.914234,-3.340243 -4.009023,-3.338148 -1.512534,0.0029 0.805305,2.89123 0.805305,2.89123 0,0 -0.650642,-2.007194 -0.265641,-2.00793 0.812094,-0.0016 2.065337,2.057888 4.002343,3.338148 2.642411,1.746496 0.120997,-2.428028 0.693343,-2.429123 0.996398,-0.0019 4.15738,5.245746 6.212112,6.602513 2.752457,1.817484 -2.684748,-7.251869 -2.135338,-7.25292 0.488862,-9.35e-4 2.468137,2.849109 4.519757,5.85033 2.047954,2.995861 4.177874,6.158999 5.083264,6.757456 1.25866,0.831965 -0.0802,-2.1506 -1.72038,-5.339964 -1.64041,-3.189755 -3.585361,-6.587537 -3.361988,-6.587965 0.444385,-8.5e-4 3.072658,3.965324 5.779808,8.10072 2.70104,4.126075 5.4971,8.449386 6.50463,9.116203 1.36505,0.903439 -0.53356,-3.194548 -2.79985,-7.512061 -2.26734,-4.319492 -4.91717,-8.864446 -4.71373,-8.864835 0.42366,-8.1e-4 3.81311,5.260349 7.19889,10.665718 3.37699,5.391338 6.77424,10.969075 7.62169,11.531261 1.21257,0.804399 -1.27433,-4.367069 -4.10618,-9.723078 -2.83456,-5.361125 -6.02619,-10.922269 -5.7491,-10.922799 0.50862,-9.74e-4 3.88555,5.198867 7.24733,10.546998 3.35312,5.334361 6.71458,10.858413 7.59083,11.437013 1.24449,0.821754 -1.83426,-5.467028 -5.32981,-11.933181 -3.50024,-6.474824 -7.45247,-13.153027 -7.22323,-13.153466 0.45644,-8.73e-4 4.96683,7.058483 9.37634,14.26314 4.39537,7.18154 8.72899,14.577905 9.57321,15.135467 1.22974,0.812185 -2.36478,-6.530641 -6.42851,-14.034601 -4.07072,-7.516888 -8.65857,-15.233695 -8.43997,-15.234113 0.45189,-8.65e-4 5.71999,8.323601 10.82036,16.801863 5.0816,8.447069 10.04765,17.141756 10.92986,17.725371 1.28306,0.848794 -2.76398,-7.544689 -7.34831,-16.093633 -4.5937,-8.566438 -9.78682,-17.340822 -9.53505,-17.341304 0.49354,-9.44e-4 6.61798,9.755363 12.43271,19.649562 5.7909,9.853642 11.33928,19.967189 12.10848,20.477939 1.18896,0.78947 -3.31627,-8.672658 -8.40469,-18.255087 -5.10102,-9.606177 -10.86356,-19.403902 -10.61875,-19.40437 0.49063,-9.39e-4 6.95247,10.418839 13.07942,20.996392 6.10003,10.531089 11.94063,21.359735 12.81943,21.944215 1.31209,0.87264 -3.57521,-9.65364 -9.16185,-20.302912 -5.60203,-10.678587 -11.99946,-21.568117 -11.76652,-21.568563 0.48086,-9.2e-4 7.09771,10.733147 13.35778,21.626594 6.23209,10.844771 12.18582,21.995361 13.07367,22.584111 1.33346,0.88423 -4.04228,-10.7361 -10.21326,-22.459071 -6.19016,-11.759437 -13.29237,-23.730922 -13.06722,-23.731352 0.48258,-9.24e-4 7.88709,11.981863 14.77938,24.098379 6.89234,12.116604 13.21279,24.367194 14.02131,24.902324 1.19167,0.78872 -4.68071,-11.86878 -11.40181,-24.576559 -6.74502,-12.753008 -14.47705,-25.691987 -14.26951,-25.692384 0.47861,-9.16e-4 8.89357,13.628665 16.62289,27.391969 7.72938,13.763414 14.6978,27.660894 15.50495,28.196344 1.19827,0.79492 -4.98825,-12.82553 -12.11698,-26.473072 -7.15633,-13.700384 -15.41339,-27.586386 -15.20503,-27.586784 0.48051,-9.2e-4 8.92705,13.760163 16.68138,27.660475 7.75439,13.900431 14.73935,27.940431 15.5819,28.497931 1.244,0.82312 -5.33252,-13.76946 -12.9521,-28.370578 -7.65127,-14.661845 -16.52676,-29.514409 -16.2754,-29.51489 0.53656,-0.001 9.88122,15.137909 18.3438,30.408253 8.46267,15.270485 15.95231,30.672795 16.74819,31.199225 1.20931,0.7999 -5.73972,-14.80162 -13.84324,-30.374665 -8.14011,-15.643364 -17.64069,-31.469217 -17.44216,-31.469597 0.5109,-9.78e-4 11.08128,17.246375 20.39763,34.389717 9.31646,17.143535 17.29501,34.183635 17.67962,33.769105 0.58607,-0.63165 -6.30203,-16.47467 -14.39665,-32.36579 -8.06234,-15.827771 -17.30544,-31.513592 -17.04301,-31.514094 0.54943,-0.0011 9.34874,14.476392 17.15819,28.621208 7.80952,14.144956 14.59894,27.957716 14.60691,26.628016 0.0116,-1.92935 -6.18357,-15.64991 -13.31139,-29.394259 -7.04707,-13.588657 -14.81526,-26.734018 -14.56881,-26.734489 0.51301,-9.82e-4 8.07315,12.335244 14.88627,24.381196 6.84673,12.105382 12.8584,23.742832 12.86409,22.641432 0.009,-1.69768 -5.43333,-13.32546 -11.52039,-24.88858 -6.02881,-11.452462 -12.54834,-22.508289 -12.29697,-22.50877 0.49941,-9.56e-4 6.66288,9.952628 12.29909,19.628076 5.65614,9.709681 10.7351,19.038944 10.73675,17.960504 0.002,-1.60053 -4.65476,-11.246643 -9.7386,-20.742878 -5.04263,-9.419264 -10.39972,-18.457741 -10.18317,-18.458155 0.45215,-8.66e-4 5.42167,7.921965 10.02357,15.5421 4.61147,7.636001 8.8352,14.921975 8.83156,13.726731 -0.005,-1.660179 -3.79067,-9.379673 -7.80663,-16.853062 -3.98804,-7.421448 -8.12635,-14.44097 -7.84878,-14.441501 0.50975,-9.75e-4 5.18368,7.31918 9.51538,14.356966 4.33967,7.050724 8.32066,13.780498 8.32741,12.663447 0.009,-1.543203 -2.73225,-7.238154 -5.57331,-12.64348 -2.82552,-5.37577 -5.70379,-10.373244 -5.46143,-10.373707 0.46243,-8.85e-4 3.38691,4.516683 6.11603,8.78872 2.73054,4.274265 5.26547,8.296406 5.27261,7.315809 0.01,-1.369654 -1.80294,-5.230902 -3.61742,-8.797078 -1.80709,-3.551647 -3.59025,-6.764656 -3.31425,-6.765184 0.98004,-0.0019 5.99306,8.507685 6.00059,6.321375 0.01,-2.909272 -3.04957,-8.025309 -2.53456,-8.026295 0.9409,-0.0018 2.01539,1.555679 2.01539,1.555679 z m -0.59747,-0.931581 c 0,0 -1.50402,-2.720907 -2.59651,-2.718827 -1.51066,0.0029 0.37836,3.116723 0.38361,3.82778 0.0105,1.426197 -0.98105,-0.223498 -2.11273,-0.221343 -1.55574,0.003 3.26982,8.155111 3.27222,8.99434 0.002,0.786333 -1.98025,-2.249687 -4.16261,-5.485295 -2.18168,-3.234586 -4.56375,-6.665753 -5.16523,-6.664608 -0.79863,0.0015 2.18175,5.572843 5.22555,11.262057 3.05745,5.714728 6.13512,11.470917 6.13226,11.969743 -0.005,0.844735 -3.1012,-4.332397 -6.48224,-9.746676 -3.37598,-5.406186 -7.02603,-11.025382 -7.58919,-11.02431 -0.75101,0.0014 2.49207,6.027168 5.76461,12.170526 3.28846,6.173265 6.55616,12.374561 6.55706,12.876643 0.002,0.847386 -3.85077,-5.826544 -8.10306,-12.766399 -4.24202,-6.923089 -8.85904,-14.062031 -9.48508,-14.060839 -0.79111,0.0015 4.30052,9.097977 9.22869,18.319863 4.96198,9.285169 9.65519,18.506219 9.65289,19.073289 -0.003,0.86466 -5.4147,-9.130167 -11.52985,-19.489185 -6.08816,-10.313308 -12.80837,-20.854152 -13.4294,-20.85297 -0.74757,0.0014 5.84359,11.438057 12.05207,22.989179 6.26014,11.647228 11.97825,23.121126 11.97838,23.677616 2e-4,0.88257 -5.64207,-9.94603 -12.00577,-20.994997 -6.36365,-11.04888 -13.4257,-22.318406 -14.03271,-22.31725 -0.72475,0.0014 6.05494,11.887472 12.40127,23.913785 6.40404,12.135672 12.19597,24.084022 12.20087,24.756722 0.007,1.00287 -6.18449,-11.20341 -13.27623,-23.660118 -7.09167,-12.45659 -15.05419,-25.163941 -15.75067,-25.162615 -0.84831,0.0016 7.90983,15.12589 15.78807,30.368473 7.96603,15.41245 14.85973,30.4336 14.85927,31.07832 -6.6e-4,0.93541 -7.43682,-14.84894 -16.25576,-30.866852 -8.81884,-16.017723 -18.96073,-32.269549 -19.69534,-32.268151 -0.84994,0.0016 8.32925,15.727674 16.44293,31.388883 8.0712,15.57921 15.29544,31.33956 14.78245,30.9998 -0.69504,-0.46035 -8.21828,-16.17635 -16.88975,-31.776948 -8.67139,-15.600447 -18.39319,-31.085964 -19.11545,-31.084589 -0.78047,0.0015 7.49607,14.344955 14.98097,28.624598 7.44929,14.211719 14.21745,28.564209 13.73289,28.244129 -0.69123,-0.4566 -7.58957,-14.40292 -15.38394,-28.234793 -7.7943,-13.831752 -16.4065,-27.549418 -17.09266,-27.548111 -0.77618,0.0015 6.60156,12.891673 13.3803,25.732987 6.74943,12.785797 12.99039,25.689937 12.61432,25.441707 -0.6047,-0.39914 -7.15093,-13.38056 -14.48773,-26.261909 -7.33674,-12.881245 -15.39691,-25.662735 -16.05105,-25.661489 -0.75677,0.0014 6.33583,12.361797 12.85081,24.651896 6.48852,12.240192 12.48223,24.560462 11.98577,24.232212 -0.73622,-0.48678 -6.53893,-11.68619 -12.89456,-22.76363 -6.35559,-11.077359 -13.21157,-22.032963 -13.85755,-22.031733 -0.78207,0.0015 4.82317,10.063606 10.10248,20.070332 5.26189,9.973713 10.25231,19.991481 9.87031,19.739211 -0.65084,-0.42981 -6.5891,-11.698901 -13.1006,-22.860266 -6.51145,-11.161288 -13.54404,-22.215086 -14.1508,-22.213931 -0.73155,0.0014 5.83243,11.404185 11.90702,22.733646 6.05174,11.286853 11.68593,22.628731 11.1842,22.295241 -0.75751,-0.50349 -6.66335,-11.633141 -13.11838,-22.63661 -6.45499,-11.003394 -13.40695,-21.880832 -14.08994,-21.879532 -0.8279,0.0016 4.10867,8.804039 8.80773,17.533881 4.68591,8.705412 9.17623,17.411815 8.70184,17.099115 -0.7258,-0.478419 -5.03835,-8.073068 -9.50666,-15.466982 -4.48333,-7.418755 -9.16433,-14.711495 -9.79005,-14.710304 -0.80447,0.0015 2.79632,6.691133 6.33032,13.331265 3.52643,6.625905 7.01008,13.245203 6.69143,13.034992 -0.59103,-0.389889 -4.81966,-7.794866 -9.23578,-15.025986 -4.4304,-7.2545 -9.08864,-14.405471 -9.73435,-14.404241 -0.8206,0.0016 3.31083,7.506398 7.28965,14.934766 3.96951,7.410981 7.81655,14.797886 7.33301,14.476652 -0.7488,-0.497451 -5.17886,-8.170303 -9.76773,-15.633652 -4.6049,-7.489419 -9.41341,-14.847746 -10.07052,-14.846495 -0.83932,0.0016 2.27864,5.81405 5.35872,11.558738 3.07466,5.734576 6.12921,11.431864 5.70676,11.152574 -0.72682,-0.480512 -3.64401,-5.256106 -6.60407,-9.875621 -2.96708,-4.630473 -5.9962,-9.137812 -6.63226,-9.136601 -0.83725,0.0016 0.82415,3.462929 2.52738,6.847275 1.7018,3.381499 3.45072,6.694599 2.98237,6.385491 -0.79563,-0.525107 -2.98492,-3.895559 -5.16243,-7.114551 -2.18164,-3.225105 -4.36252,-6.317119 -4.99666,-6.315912 -0.83946,0.0016 0.68179,3.228395 2.25393,6.378909 1.57093,3.148101 3.1973,6.227203 2.73657,5.921346 -1.60032,-1.06237 -7.720157,-11.445914 -8.879685,-11.443707 -1.583587,0.003 2.689755,7.20815 1.734715,6.574351 -1.649709,-1.094803 -6.851451,-9.777602 -8.024887,-9.775368 -1.597489,0.003 2.307888,6.494819 1.416928,5.902752 -1.593289,-1.058784 -5.706046,-7.845354 -6.857355,-7.843162 -1.569234,0.003 0.684235,2.776583 0.684235,2.776583 0,0 -0.584611,-1.892443 -0.142898,-1.893284 0.868614,-0.0017 4.782197,6.473234 6.840816,7.843162 2.759964,1.836645 -1.871164,-5.901863 -1.404481,-5.902751 0.890738,-0.0017 5.89441,8.373228 8.004272,9.775368 2.80356,1.863145 -2.173615,-6.573489 -1.720849,-6.574351 0.876825,-0.0017 6.800689,10.077671 8.855549,11.443707 1.37037,0.910994 0.0423,-2.164258 -1.60864,-5.466655 -1.65109,-3.302613 -3.62857,-6.833081 -3.35592,-6.8336 0.49249,-9.38e-4 2.55154,3.016085 4.7052,6.203627 2.14934,3.181128 4.40458,6.55205 5.42557,7.226835 1.37199,0.906762 -0.0776,-2.402337 -1.85742,-5.936355 -1.78017,-3.534593 -3.89479,-7.295896 -3.62442,-7.29641 0.49427,-9.41e-4 3.3994,4.432287 6.33642,9.025639 2.92971,4.5819 5.91087,9.358347 6.85981,9.986582 1.31217,0.868703 -1.43128,-4.822207 -4.57592,-10.708728 -3.14821,-5.893198 -6.72784,-12.002038 -6.44167,-12.002583 0.51505,-9.81e-4 5.19395,7.284095 9.76393,14.736824 4.55346,7.425798 9.04338,15.100235 10.01005,15.743322 1.35722,0.902911 -2.17065,-6.47591 -6.20282,-14.037968 -4.03915,-7.575173 -8.63335,-15.372925 -8.35782,-15.37345 0.50368,-9.59e-4 5.03336,7.077561 9.42954,14.29577 4.38143,7.193996 8.67024,14.600504 9.47853,15.134458 1.18996,0.786088 -1.97863,-5.826322 -5.56852,-12.601107 -3.59548,-6.785329 -7.65268,-13.764665 -7.39763,-13.76515 0.48368,-9.21e-4 5.03682,7.220124 9.4861,14.602967 4.43382,7.357184 8.80619,14.953331 9.74698,15.574315 1.33538,0.88145 -2.82993,-7.815908 -7.57268,-16.669763 -4.7533,-8.87355 -10.15414,-17.962677 -9.86387,-17.963229 0.54063,-0.001 7.35751,10.805503 13.77224,21.773381 6.38377,10.914942 12.45237,22.150471 13.34222,22.742761 1.34411,0.89465 -3.95273,-10.43566 -10.05154,-21.870637 -6.11835,-11.471622 -13.15719,-23.157846 -12.94473,-23.15825 0.46438,-8.84e-4 7.36187,10.982701 13.83292,22.108819 6.4711,11.126194 12.46116,22.395148 13.32343,22.965378 1.22294,0.80876 -3.43696,-9.19918 -8.74796,-19.318765 -5.32564,-10.147482 -11.39347,-20.490298 -11.14088,-20.490779 0.50361,-9.59e-4 7.22597,10.885129 13.5419,21.927667 6.28607,10.990327 12.24954,22.294177 13.11574,22.867697 1.32617,0.87807 -4.32637,-11.43017 -10.85673,-23.815945 -6.55341,-12.429496 -14.12239,-25.067696 -13.87676,-25.068163 0.51162,-9.75e-4 8.43434,12.711663 15.72818,25.558419 7.2939,12.846859 13.88893,25.828139 14.70111,26.364979 1.19918,0.79264 -4.69833,-12.0993 -11.48673,-25.029428 -6.81426,-12.979391 -14.66936,-26.144754 -14.39998,-26.145267 0.54356,-0.001 9.017,13.648433 16.76699,27.446022 7.75006,13.797703 14.69552,27.743893 15.59198,28.336883 1.29803,0.85863 -5.1203,-13.48039 -12.60328,-27.835773 -7.51482,-14.416438 -16.27847,-29.032406 -15.99066,-29.032954 0.57952,-0.0011 10.15933,15.416882 18.78346,30.983501 8.62421,15.566766 16.19149,31.282626 17.08918,31.878036 1.31536,0.87242 -5.55301,-14.87336 -13.65232,-30.595449 -8.13765,-15.79653 -17.72604,-31.792692 -17.4415,-31.793234 0.59665,-0.0011 10.72054,16.404227 19.53752,32.498639 8.81709,16.094604 16.27695,31.878824 16.28045,30.636364 0.005,-1.89738 -6.62032,-16.87012 -14.43639,-32.000271 -7.71568,-14.935804 -16.36428,-29.445984 -16.08138,-29.446522 0.55766,-0.0011 8.5064,12.852783 15.60508,25.382543 7.13643,12.5964 13.32523,24.66951 13.31887,23.44019 -0.01,-1.86192 -5.52977,-13.77612 -11.78198,-25.636438 -6.18546,-11.733702 -12.92385,-23.033677 -12.71753,-23.03407 0.46782,-8.9e-4 7.51628,11.409346 13.88975,22.528506 6.40267,11.170082 12.0553,21.896882 12.0574,20.783742 0.003,-1.69792 -5.44114,-13.140731 -11.55134,-24.522636 -6.05016,-11.270071 -12.60667,-22.143729 -12.3807,-22.144159 0.48162,-9.17e-4 7.18811,10.675418 13.28756,21.056398 6.1236,10.422081 11.5796,20.425997 11.58662,19.285757 0.0102,-1.66237 -4.40747,-10.86111 -9.22139,-19.887002 -4.7741,-8.951238 -9.83435,-17.505668 -9.58135,-17.50615 0.48598,-9.25e-4 5.09382,7.26866 9.35528,14.256999 4.26978,7.001985 8.17597,13.682026 8.1763,12.570238 4.6e-4,-1.553702 -2.98983,-7.742523 -6.13043,-13.661285 -3.12129,-5.882371 -6.33574,-11.385508 -6.13843,-11.385883 0.42279,-8.05e-4 4.06439,5.744886 7.46281,11.214249 3.40193,5.475028 6.55618,10.656883 6.56482,9.556737 0.0119,-1.516322 -2.78775,-7.261919 -5.69936,-12.729499 -2.89507,-5.436519 -5.85263,-10.501838 -5.60945,-10.502301 0.46071,-8.78e-4 2.83806,3.552868 5.04765,6.848675 2.20925,3.295303 4.25532,6.33424 4.25456,5.301228 -0.002,-2.800458 -3.67817,-8.993531 -3.25325,-8.99434 0.84897,-0.0016 2.12232,2.1243 2.11226,0.221342 -0.0138,-2.618098 -0.7554,-3.827056 -0.37554,-3.827779 0.80659,-0.0015 2.05847,1.835527 2.05847,1.835527 z"
       id="path852"
       inkscape:connector-curvature="0"
       inkscape:path-effect="#path-effect2417"
       inkscape:original-d="m 185.22461,66.039062 -100.039063,0.191407 99.943363,66.246091 0.002,-0.55664 z M 184.625,66.640625 184.5313,131.36133 87.168019,66.826172 Z" />
    <g
       id="g842"
       transform="rotate(81.666458,119.84694,81.834352)">
      <rect
         y="85.857071"
         x="173.19066"
         height="10.423512"
         width="5.8799295"
         id="rect817"
         style="opacity:1;fill:#ffb800;fill-opacity:1;stroke:#fc8b00;stroke-width:1;stroke-linecap:square;stroke-linejoin:round;stroke-miterlimit:4;stroke-dasharray:none;stroke-dashoffset:0;stroke-opacity:1;paint-order:fill markers stroke" />
      <circle
         r="1.3363476"
         cy="89.064308"
         cx="176.13063"
         id="path825"
         style="opacity:1;fill:#000100;fill-opacity:1;stroke:none;stroke-width:1;stroke-linecap:square;stroke-linejoin:round;stroke-miterlimit:4;stroke-dasharray:none;stroke-dashoffset:0;stroke-opacity:1;paint-order:fill markers stroke" />
      <g
         transform="translate(-1.6593933e-6)"
         id="g835">
        <path
           style="fill:none;stroke:#000000;stroke-width:1.16499996;stroke-linecap:butt;stroke-linejoin:miter;stroke-miterlimit:4;stroke-dasharray:none;stroke-opacity:1"
           d="m 172.5292,92.784305 v 3.496281"
           id="path829"
           inkscape:connector-curvature="0" />
        <path
           inkscape:connector-curvature="0"
           id="path831"
           d="m 179.73205,92.784305 v 3.496281"
           style="fill:none;stroke:#000000;stroke-width:1.16499996;stroke-linecap:butt;stroke-linejoin:miter;stroke-miterlimit:4;stroke-dasharray:none;stroke-opacity:1" />
      </g>
    </g>
    <path
       style="fill:none;stroke:#00a600;stroke-width:1.06500006;stroke-linecap:butt;stroke-linejoin:miter;stroke-miterlimit:4;stroke-dasharray:none;stroke-opacity:1"
       d="m 80.252265,112.29096 h 72.706775 v 42.84666"
       id="path6149"
       inkscape:connector-curvature="0" />
    <path
       style="fill:none;stroke:#000000;stroke-width:0.26458332px;stroke-linecap:butt;stroke-linejoin:miter;stroke-opacity:1"
       d="m 167.44345,95.538688 v 20.977682 l -33.63988,31.27753 -35.529762,-0.66146 -0.09449,-51.215775 56.696422,0.377978 V 76.639879 h 12.7567 v 3.874257 0.188987"
       id="path846"
       inkscape:connector-curvature="0"
       sodipodi:nodetypes="cccccccccc" />
    <rect
       style="opacity:1;fill:#c8c8c8;fill-opacity:1;stroke:#0b0000;stroke-width:0.5;stroke-linecap:square;stroke-linejoin:round;stroke-miterlimit:4;stroke-dasharray:none;stroke-dashoffset:0;stroke-opacity:1;paint-order:fill markers stroke"
       id="rect844"
       width="11.811756"
       height="16.441963"
       x="161.67932"
       y="79.096725" />
    <path
       style="fill:none;stroke:#ff0000;stroke-width:0.26458332px;stroke-linecap:butt;stroke-linejoin:miter;stroke-opacity:1"
       d="m 124.63682,138.02339 14.38473,-2.20261 v 0 0"
       id="path848"
       inkscape:connector-curvature="0" />
    <path
       inkscape:connector-curvature="0"
       id="path850"
       d="m 139.11604,135.82078 8.28226,-1.3943 19.43255,-18.21424 0.0446,-20.208806"
       style="fill:none;stroke:#ff0000;stroke-width:0.26499999;stroke-linecap:butt;stroke-linejoin:miter;stroke-miterlimit:4;stroke-dasharray:0.26499999, 0.52999997;stroke-dashoffset:0;stroke-opacity:1"
       sodipodi:nodetypes="cccc" />
    <text
       xml:space="preserve"
       style="font-style:normal;font-weight:normal;font-size:3.52777767px;line-height:1.25;font-family:sans-serif;letter-spacing:0px;word-spacing:0px;fill:#000000;fill-opacity:1;stroke:none;stroke-width:0.26458332"
       x="163.21078"
       y="88.35714"
       id="text6124"><tspan
         sodipodi:role="line"
         id="tspan6122"
         x="163.21078"
         y="88.35714"
         style="stroke-width:0.26458332">Base</tspan></text>
    <text
       xml:space="preserve"
       style="font-style:normal;font-weight:normal;font-size:3.52777767px;line-height:1.25;font-family:sans-serif;letter-spacing:0px;word-spacing:0px;fill:#000000;fill-opacity:1;stroke:none;stroke-width:0.26458332"
       x="105.64435"
       y="75.316963"
       id="text6128"><tspan
         sodipodi:role="line"
         id="tspan6126"
         x="105.64435"
         y="75.316963"
         style="stroke-width:0.26458332">Area with bad RTK</tspan></text>
    <text
       xml:space="preserve"
       style="font-style:normal;font-weight:normal;font-size:3.52777767px;line-height:1.25;font-family:sans-serif;letter-spacing:0px;word-spacing:0px;fill:#000000;fill-opacity:1;stroke:none;stroke-width:0.26458332"
       x="99.124252"
       y="99.790916"
       id="text6132"><tspan
         sodipodi:role="line"
         id="tspan6130"
         x="99.124252"
         y="99.790916"
         style="stroke-width:0.26458332">Perimeter wire</tspan></text>
    <path
       sodipodi:nodetypes="cccc"
       inkscape:connector-curvature="0"
       id="path6134"
       d="m 168.1049,95.798547 v 20.977683 l -34.25409,31.63188 -23.62351,-0.47247"
       style="fill:none;stroke:#0000ff;stroke-width:0.26458332;stroke-linecap:butt;stroke-linejoin:miter;stroke-miterlimit:4;stroke-dasharray:0.26458332, 0.52916663;stroke-dashoffset:0;stroke-opacity:1" />
    <text
       xml:space="preserve"
       style="font-style:normal;font-weight:normal;font-size:3.52777767px;line-height:1.25;font-family:sans-serif;letter-spacing:0px;word-spacing:0px;fill:#ff0000;fill-opacity:1;stroke:none;stroke-width:0.26458332"
       x="160.36172"
       y="133.56468"
       id="text6138"><tspan
         sodipodi:role="line"
         id="tspan6136"
         x="160.36172"
         y="133.56468"
         style="fill:#ff0000;fill-opacity:1;stroke-width:0.26458332">Docking</tspan></text>
    <text
       xml:space="preserve"
       style="font-style:normal;font-weight:normal;font-size:3.52777767px;line-height:1.25;font-family:sans-serif;letter-spacing:0px;word-spacing:0px;fill:#0000ff;fill-opacity:1;stroke:none;stroke-width:0.26458332"
       x="160.40134"
       y="137.70735"
       id="text6142"><tspan
         sodipodi:role="line"
         id="tspan6140"
         x="160.40134"
         y="137.70735"
         style="fill:#0000ff;fill-opacity:1;stroke-width:0.26458332">Undocking</tspan></text>
    <text
       xml:space="preserve"
       style="font-style:normal;font-weight:normal;font-size:3.52777767px;line-height:1.25;font-family:sans-serif;letter-spacing:0px;word-spacing:0px;fill:#008c00;fill-opacity:1;stroke:none;stroke-width:0.26458332"
       x="81.650833"
       y="153.47627"
       id="text6153"><tspan
         sodipodi:role="line"
         id="tspan6151"
         x="81.650833"
         y="153.47627"
         style="fill:#008c00;fill-opacity:1;stroke-width:0.26458332">Mowing area</tspan></text>
  </g>
</svg>
